<svg width="194" height="32" viewBox="0 0 194 32" fill="none" xmlns="http://www.w3.org/2000/svg">
<path d="M27.3838 10.6286L17.357 4.37929C16.5309 3.86917 15.4665 3.87438 14.6453 4.39024L4.60814 10.6338C3.98488 11.0255 3.81267 11.8251 4.22271 12.4197C4.63329 13.0144 5.47086 13.1792 6.09466 12.7869L16.0104 6.61852L25.9142 12.7922C26.1416 12.9325 26.3959 12.9987 26.6473 12.9987C27.0913 12.9987 27.5243 12.7916 27.7829 12.4109C28.1885 11.8131 28.0092 11.0161 27.3838 10.6286Z" fill="#888B97"/>
<path d="M24.2107 18.7531C24.134 18.3031 23.7525 17.9702 23.3075 17.9702H22.796L22.6017 15.8962C22.3942 13.6781 20.5985 12 18.4248 12H13.5761C11.4019 12 9.6067 13.6787 9.39866 15.8962L9.20484 17.9702H8.69287C8.24737 17.9702 7.86632 18.3031 7.78869 18.7531L7.02759 23.1768C6.93321 23.7251 7.08442 24.2895 7.43351 24.715C7.76941 25.1249 8.26412 25.3694 8.78167 25.3876V26.1221C8.78167 27.162 9.59452 28 10.6098 28H11.1872C12.2015 28 13.0266 27.162 13.0266 26.1221V25.3996H18.9794V26.1206C18.9794 27.1609 19.7978 28 20.8121 28H21.39C22.4043 28 23.2238 27.1609 23.2238 26.1206V25.3876C23.7413 25.3694 24.233 25.127 24.5679 24.7176C24.917 24.291 25.0661 23.7298 24.9728 23.1804L24.2107 18.7531ZM10.3906 23.6933C9.53465 23.6933 8.84052 22.9822 8.84052 22.1036C8.84052 21.225 9.53465 20.5134 10.3906 20.5134C11.2471 20.5134 11.9417 21.2245 11.9417 22.1036C11.9417 22.9822 11.2471 23.6933 10.3906 23.6933ZM10.7773 17.9702L10.9564 16.057C11.0868 14.666 12.2127 13.6183 13.5761 13.6183H13.8557V14.2196C13.8557 14.7414 14.2601 15.157 14.7685 15.157H17.2324C17.7408 15.157 18.1523 14.7414 18.1523 14.2196V13.6188H18.4248C19.7882 13.6188 20.9141 14.6665 21.044 16.0575L21.2236 17.9707L10.7773 17.9702ZM21.6082 23.6933C20.7522 23.6933 20.0581 22.9822 20.0581 22.1036C20.0581 21.225 20.7522 20.5134 21.6082 20.5134C22.4647 20.5134 23.1593 21.2245 23.1593 22.1036C23.1593 22.9822 22.4647 23.6933 21.6082 23.6933Z" fill="#888B97"/>
<path d="M49.696 22V20.336H51.472V12.896L49.856 13.744L49.392 12.24L52.384 10.64H53.216V20.336H55.04V22H49.696ZM66.5964 22.16C65.5617 22.16 64.639 21.9147 63.8284 21.424C63.0284 20.9333 62.399 20.256 61.9404 19.392C61.4817 18.528 61.2524 17.5307 61.2524 16.4C61.2524 15.6 61.391 14.8587 61.6684 14.176C61.9564 13.4827 62.351 12.8747 62.8524 12.352C63.3537 11.8293 63.935 11.424 64.5964 11.136C65.2577 10.848 65.9724 10.704 66.7404 10.704C67.2844 10.704 67.8124 10.7893 68.3244 10.96C68.847 11.12 69.3164 11.3493 69.7324 11.648C70.159 11.936 70.5057 12.2667 70.7724 12.64L69.6204 13.84C68.703 12.9013 67.743 12.432 66.7404 12.432C66.047 12.432 65.4177 12.6027 64.8524 12.944C64.287 13.2853 63.839 13.7547 63.5084 14.352C63.1777 14.9493 63.0124 15.632 63.0124 16.4C63.0124 17.2213 63.1724 17.9307 63.4924 18.528C63.823 19.1253 64.2764 19.5893 64.8524 19.92C65.439 20.2507 66.1164 20.416 66.8844 20.416C67.4177 20.416 67.9297 20.3093 68.4204 20.096C68.911 19.8827 69.3377 19.5893 69.7004 19.216L70.5644 20.624C70.319 20.912 69.983 21.1733 69.5564 21.408C69.1404 21.6427 68.671 21.8293 68.1484 21.968C67.6364 22.096 67.119 22.16 66.5964 22.16ZM75.7278 22.16C75.0344 22.16 74.3998 21.968 73.8238 21.584C73.2584 21.2 72.8051 20.6773 72.4638 20.016C72.1224 19.3547 71.9518 18.608 71.9518 17.776C71.9518 16.9333 72.1224 16.1867 72.4638 15.536C72.8158 14.8747 73.2851 14.3573 73.8718 13.984C74.4691 13.6107 75.1358 13.424 75.8718 13.424C76.5011 13.424 77.0558 13.5627 77.5358 13.84C78.0264 14.1067 78.3998 14.4533 78.6558 14.88V13.6H80.3198V22H78.6558V20.704C78.3678 21.1093 77.9571 21.456 77.4238 21.744C76.9011 22.0213 76.3358 22.16 75.7278 22.16ZM76.1598 20.64C76.6611 20.64 77.1038 20.5173 77.4878 20.272C77.8718 20.0267 78.1704 19.6907 78.3838 19.264C78.6078 18.8267 78.7198 18.3307 78.7198 17.776C78.7198 17.232 78.6078 16.7467 78.3838 16.32C78.1704 15.8933 77.8718 15.5573 77.4878 15.312C77.1038 15.0667 76.6611 14.944 76.1598 14.944C75.6691 14.944 75.2318 15.0667 74.8478 15.312C74.4744 15.5573 74.1758 15.8933 73.9518 16.32C73.7384 16.7467 73.6318 17.232 73.6318 17.776C73.6318 18.3307 73.7384 18.8267 73.9518 19.264C74.1758 19.6907 74.4744 20.0267 74.8478 20.272C75.2318 20.5173 75.6691 20.64 76.1598 20.64ZM82.6208 22V13.6H84.2848V15.184C84.5301 14.6827 84.8874 14.2667 85.3568 13.936C85.8261 13.5947 86.3221 13.424 86.8448 13.424C87.0261 13.424 87.1968 13.44 87.3568 13.472C87.5274 13.504 87.6608 13.5413 87.7568 13.584L87.3248 15.376C87.1968 15.3227 87.0528 15.28 86.8928 15.248C86.7434 15.2053 86.5941 15.184 86.4448 15.184C86.0608 15.184 85.7034 15.28 85.3728 15.472C85.0528 15.664 84.7914 15.9253 84.5888 16.256C84.3861 16.5867 84.2848 16.9547 84.2848 17.36V22H82.6208ZM89.0739 25.52V13.6H90.7379V14.8C90.9939 14.4373 91.3725 14.1227 91.8739 13.856C92.3859 13.5893 92.9139 13.456 93.4579 13.456C94.2152 13.456 94.8872 13.6427 95.4739 14.016C96.0605 14.3893 96.5245 14.9013 96.8659 15.552C97.2072 16.2027 97.3779 16.9493 97.3779 17.792C97.3779 18.624 97.2072 19.3707 96.8659 20.032C96.5352 20.6827 96.0765 21.2 95.4899 21.584C94.9032 21.9573 94.2419 22.144 93.5059 22.144C92.9619 22.144 92.4392 22.0213 91.9379 21.776C91.4365 21.5307 91.0365 21.2373 90.7379 20.896V25.52H89.0739ZM93.2339 20.624C93.7245 20.624 94.1619 20.5013 94.5459 20.256C94.9299 20.0107 95.2339 19.6747 95.4579 19.248C95.6819 18.8213 95.7939 18.336 95.7939 17.792C95.7939 17.248 95.6819 16.768 95.4579 16.352C95.2445 15.9253 94.9459 15.5893 94.5619 15.344C94.1779 15.0987 93.7352 14.976 93.2339 14.976C92.7325 14.976 92.2899 15.0987 91.9059 15.344C91.5219 15.5787 91.2179 15.9093 90.9939 16.336C90.7699 16.7627 90.6579 17.248 90.6579 17.792C90.6579 18.336 90.7699 18.8213 90.9939 19.248C91.2179 19.6747 91.5219 20.0107 91.9059 20.256C92.2899 20.5013 92.7325 20.624 93.2339 20.624ZM102.944 22.16C102.122 22.16 101.386 21.9733 100.736 21.6C100.096 21.216 99.589 20.6987 99.2156 20.048C98.8423 19.3867 98.6556 18.6347 98.6556 17.792C98.6556 16.9493 98.8423 16.2027 99.2156 15.552C99.589 14.8907 100.096 14.3733 100.736 14C101.386 13.616 102.122 13.424 102.944 13.424C103.754 13.424 104.48 13.616 105.12 14C105.77 14.3733 106.282 14.8907 106.656 15.552C107.029 16.2027 107.216 16.9493 107.216 17.792C107.216 18.6347 107.029 19.3867 106.656 20.048C106.282 20.6987 105.77 21.216 105.12 21.6C104.48 21.9733 103.754 22.16 102.944 22.16ZM102.944 20.656C103.445 20.656 103.893 20.5333 104.288 20.288C104.682 20.032 104.992 19.6907 105.216 19.264C105.44 18.8267 105.546 18.336 105.536 17.792C105.546 17.2373 105.44 16.7467 105.216 16.32C104.992 15.8827 104.682 15.5413 104.288 15.296C103.893 15.0507 103.445 14.928 102.944 14.928C102.442 14.928 101.989 15.056 101.584 15.312C101.189 15.5573 100.88 15.8987 100.656 16.336C100.432 16.7627 100.325 17.248 100.336 17.792C100.325 18.336 100.432 18.8267 100.656 19.264C100.88 19.6907 101.189 20.032 101.584 20.288C101.989 20.5333 102.442 20.656 102.944 20.656ZM109.011 22V13.6H110.675V15.184C110.921 14.6827 111.278 14.2667 111.747 13.936C112.217 13.5947 112.713 13.424 113.235 13.424C113.417 13.424 113.587 13.44 113.747 13.472C113.918 13.504 114.051 13.5413 114.147 13.584L113.715 15.376C113.587 15.3227 113.443 15.28 113.283 15.248C113.134 15.2053 112.985 15.184 112.835 15.184C112.451 15.184 112.094 15.28 111.763 15.472C111.443 15.664 111.182 15.9253 110.979 16.256C110.777 16.5867 110.675 16.9547 110.675 17.36V22H109.011ZM116.817 22V15.2H115.073V13.6H116.817V11.456H118.465V13.6H120.417V15.2H118.465V22H116.817Z" fill="#3C4563"/>
</svg>
