<svg width="28" height="28" viewBox="0 0 28 28" fill="none" xmlns="http://www.w3.org/2000/svg">
<path d="M17.5078 22.1646C17.7781 22.1651 18.04 22.0704 18.2482 21.8969C18.3653 21.7991 18.4622 21.6791 18.5331 21.5437C18.6041 21.4082 18.6478 21.2601 18.6618 21.1076C18.6758 20.9551 18.6597 20.8014 18.6145 20.6552C18.5694 20.5089 18.496 20.3731 18.3986 20.2555L13.2158 14.016L18.2135 7.76487C18.3096 7.6458 18.3813 7.50879 18.4246 7.36172C18.4679 7.21465 18.4819 7.06042 18.4658 6.90789C18.4497 6.75536 18.4038 6.60754 18.3307 6.47293C18.2576 6.33832 18.1588 6.21957 18.0399 6.12351C17.9202 6.01753 17.7801 5.9376 17.6282 5.88872C17.4764 5.83984 17.3161 5.82307 17.1575 5.83947C16.9989 5.85587 16.8454 5.90507 16.7066 5.984C16.5678 6.06293 16.4467 6.16987 16.3509 6.29812L10.7632 13.2826C10.593 13.4909 10.5 13.7522 10.5 14.0218C10.5 14.2915 10.593 14.5527 10.7632 14.761L16.5476 21.7455C16.6636 21.8864 16.811 21.9978 16.9779 22.0706C17.1447 22.1434 17.3263 22.1756 17.5078 22.1646Z" fill="#3C4563"/>
</svg>
