<svg width="175" height="52" viewBox="0 0 175 52" fill="none" xmlns="http://www.w3.org/2000/svg">
<rect x="0.5" y="0.5" width="174" height="51" rx="25.5" stroke="#E0E3EB"/>
<path d="M41 25V19C41 17.9 40.1 17 39 17H33C31.9 17 31 17.9 31 19V21H29C27.9 21 27 21.9 27 23V33C27 34.1 27.9 35 29 35H35V31H37V35H43C44.1 35 45 34.1 45 33V27C45 25.9 44.1 25 43 25H41ZM31 33H29V31H31V33ZM31 29H29V27H31V29ZM31 25H29V23H31V25ZM35 29H33V27H35V29ZM35 25H33V23H35V25ZM35 21H33V19H35V21ZM39 29H37V27H39V29ZM39 25H37V23H39V25ZM39 21H37V19H39V21ZM43 33H41V31H43V33ZM43 29H41V27H43V29Z" fill="#888B97"/>
<path d="M56.45 33L61.328 20.4H63.308L68.15 33H66.08L64.892 29.868H59.618L58.43 33H56.45ZM61.292 25.476L60.338 27.996H64.19L63.2 25.404C63.164 25.32 63.092 25.11 62.984 24.774C62.876 24.438 62.756 24.066 62.624 23.658C62.492 23.25 62.372 22.89 62.264 22.578C62.168 22.89 62.06 23.232 61.94 23.604C61.82 23.976 61.7 24.33 61.58 24.666C61.472 25.002 61.376 25.272 61.292 25.476ZM69.8995 36.96V23.55H71.7715V24.9C72.0595 24.492 72.4855 24.138 73.0495 23.838C73.6255 23.538 74.2195 23.388 74.8315 23.388C75.6835 23.388 76.4395 23.598 77.0995 24.018C77.7595 24.438 78.2815 25.014 78.6655 25.746C79.0495 26.478 79.2415 27.318 79.2415 28.266C79.2415 29.202 79.0495 30.042 78.6655 30.786C78.2935 31.518 77.7775 32.1 77.1175 32.532C76.4575 32.952 75.7135 33.162 74.8855 33.162C74.2735 33.162 73.6855 33.024 73.1215 32.748C72.5575 32.472 72.1075 32.142 71.7715 31.758V36.96H69.8995ZM74.5795 31.452C75.1315 31.452 75.6235 31.314 76.0555 31.038C76.4875 30.762 76.8295 30.384 77.0815 29.904C77.3335 29.424 77.4595 28.878 77.4595 28.266C77.4595 27.654 77.3335 27.114 77.0815 26.646C76.8415 26.166 76.5055 25.788 76.0735 25.512C75.6415 25.236 75.1435 25.098 74.5795 25.098C74.0155 25.098 73.5175 25.236 73.0855 25.512C72.6535 25.776 72.3115 26.148 72.0595 26.628C71.8075 27.108 71.6815 27.654 71.6815 28.266C71.6815 28.878 71.8075 29.424 72.0595 29.904C72.3115 30.384 72.6535 30.762 73.0855 31.038C73.5175 31.314 74.0155 31.452 74.5795 31.452ZM84.891 33.18C84.111 33.18 83.397 32.964 82.749 32.532C82.113 32.1 81.603 31.512 81.219 30.768C80.835 30.024 80.643 29.184 80.643 28.248C80.643 27.3 80.835 26.46 81.219 25.728C81.615 24.984 82.143 24.402 82.803 23.982C83.475 23.562 84.225 23.352 85.053 23.352C85.761 23.352 86.385 23.508 86.925 23.82C87.477 24.12 87.897 24.51 88.185 24.99V23.55H90.057V33H88.185V31.542C87.861 31.998 87.399 32.388 86.799 32.712C86.211 33.024 85.575 33.18 84.891 33.18ZM85.377 31.47C85.941 31.47 86.439 31.332 86.871 31.056C87.303 30.78 87.639 30.402 87.879 29.922C88.131 29.43 88.257 28.872 88.257 28.248C88.257 27.636 88.131 27.09 87.879 26.61C87.639 26.13 87.303 25.752 86.871 25.476C86.439 25.2 85.941 25.062 85.377 25.062C84.825 25.062 84.333 25.2 83.901 25.476C83.481 25.752 83.145 26.13 82.893 26.61C82.653 27.09 82.533 27.636 82.533 28.248C82.533 28.872 82.653 29.43 82.893 29.922C83.145 30.402 83.481 30.78 83.901 31.056C84.333 31.332 84.825 31.47 85.377 31.47ZM92.6456 33V23.55H94.5176V25.332C94.7936 24.768 95.1956 24.3 95.7236 23.928C96.2516 23.544 96.8096 23.352 97.3976 23.352C97.6016 23.352 97.7936 23.37 97.9736 23.406C98.1656 23.442 98.3156 23.484 98.4236 23.532L97.9376 25.548C97.7936 25.488 97.6316 25.44 97.4516 25.404C97.2836 25.356 97.1156 25.332 96.9476 25.332C96.5156 25.332 96.1136 25.44 95.7416 25.656C95.3816 25.872 95.0876 26.166 94.8596 26.538C94.6316 26.91 94.5176 27.324 94.5176 27.78V33H92.6456ZM101.427 33V25.35H99.4649V23.55H101.427V21.138H103.281V23.55H105.477V25.35H103.281V33H101.427ZM107.129 33V23.55H109.001V25.044C109.301 24.588 109.721 24.198 110.261 23.874C110.801 23.55 111.371 23.388 111.971 23.388C113.447 23.388 114.407 24.048 114.851 25.368C115.031 25.008 115.295 24.678 115.643 24.378C116.003 24.078 116.393 23.838 116.813 23.658C117.245 23.478 117.677 23.388 118.109 23.388C120.209 23.388 121.259 24.702 121.259 27.33V33H119.387V27.438C119.387 26.634 119.231 26.046 118.919 25.674C118.619 25.29 118.145 25.098 117.497 25.098C116.813 25.098 116.243 25.314 115.787 25.746C115.331 26.178 115.103 26.712 115.103 27.348V33H113.231V27.402C113.231 26.658 113.069 26.088 112.745 25.692C112.433 25.296 111.977 25.098 111.377 25.098C110.933 25.098 110.531 25.2 110.171 25.404C109.811 25.596 109.523 25.86 109.307 26.196C109.103 26.52 109.001 26.892 109.001 27.312V33H107.129ZM128.151 33.18C127.179 33.18 126.315 32.976 125.559 32.568C124.815 32.148 124.227 31.578 123.795 30.858C123.375 30.138 123.165 29.31 123.165 28.374C123.165 27.378 123.369 26.508 123.777 25.764C124.197 25.008 124.767 24.42 125.487 24C126.219 23.568 127.053 23.346 127.989 23.334C128.805 23.346 129.537 23.55 130.185 23.946C130.845 24.342 131.361 24.882 131.733 25.566C132.117 26.25 132.297 27.036 132.273 27.924L132.255 28.716H125.019C125.127 29.568 125.475 30.246 126.063 30.75C126.663 31.242 127.419 31.488 128.331 31.488C128.799 31.488 129.231 31.41 129.627 31.254C130.035 31.098 130.473 30.816 130.941 30.408L131.877 31.722C131.433 32.154 130.869 32.508 130.185 32.784C129.501 33.048 128.823 33.18 128.151 33.18ZM127.989 25.044C126.369 25.044 125.403 25.776 125.091 27.24H130.383V27.114C130.347 26.718 130.215 26.364 129.987 26.052C129.759 25.74 129.471 25.494 129.123 25.314C128.775 25.134 128.397 25.044 127.989 25.044ZM134.288 33V23.55H136.142V25.026C136.454 24.558 136.892 24.162 137.456 23.838C138.032 23.514 138.626 23.352 139.238 23.352C141.398 23.352 142.478 24.648 142.478 27.24V33H140.624V27.366C140.624 25.746 139.958 24.972 138.626 25.044C138.158 25.044 137.732 25.146 137.348 25.35C136.976 25.542 136.682 25.806 136.466 26.142C136.25 26.478 136.142 26.856 136.142 27.276V33H134.288ZM146.163 33V25.35H144.201V23.55H146.163V21.138H148.017V23.55H150.213V25.35H148.017V33H146.163Z" fill="#888B97"/>
</svg>
