<svg width="136" height="52" viewBox="0 0 136 52" fill="none" xmlns="http://www.w3.org/2000/svg">
<rect x="76" width="60" height="52" rx="26" fill="#10B981"/>
<path d="M103.659 17.8355C103.389 17.835 103.127 17.9297 102.919 18.1033C102.801 18.201 102.705 18.321 102.634 18.4564C102.563 18.5919 102.519 18.7401 102.505 18.8925C102.491 19.045 102.507 19.1988 102.552 19.345C102.597 19.4912 102.671 19.627 102.768 19.7446L107.951 25.9841L102.953 32.2353C102.857 32.3543 102.785 32.4913 102.742 32.6384C102.699 32.7855 102.685 32.9397 102.701 33.0922C102.717 33.2448 102.763 33.3926 102.836 33.5272C102.909 33.6618 103.008 33.7806 103.127 33.8766C103.246 33.9826 103.387 34.0625 103.538 34.1114C103.69 34.1603 103.851 34.177 104.009 34.1607C104.168 34.1443 104.321 34.0951 104.46 34.0161C104.599 33.9372 104.72 33.8303 104.816 33.702L110.403 26.7175C110.574 26.5092 110.667 26.2479 110.667 25.9783C110.667 25.7087 110.574 25.4474 110.403 25.2391L104.619 18.2546C104.503 18.1137 104.356 18.0024 104.189 17.9295C104.022 17.8567 103.84 17.8245 103.659 17.8355Z" fill="white"/>
<rect width="60" height="52" rx="26" fill="#E0E3EB"/>
<path d="M33.5078 34.1645C33.7781 34.165 34.04 34.0703 34.2482 33.8967C34.3653 33.799 34.4622 33.679 34.5331 33.5436C34.6041 33.4081 34.6478 33.2599 34.6618 33.1075C34.6758 32.955 34.6597 32.8012 34.6145 32.655C34.5694 32.5088 34.496 32.373 34.3986 32.2554L29.2158 26.0159L34.2135 19.7647C34.3096 19.6457 34.3813 19.5087 34.4246 19.3616C34.4679 19.2145 34.4819 19.0603 34.4658 18.9078C34.4497 18.7552 34.4038 18.6074 34.3307 18.4728C34.2576 18.3382 34.1588 18.2194 34.0399 18.1234C33.9202 18.0174 33.7801 17.9375 33.6282 17.8886C33.4764 17.8397 33.3161 17.823 33.1575 17.8393C32.9989 17.8557 32.8454 17.9049 32.7066 17.9839C32.5678 18.0628 32.4467 18.1697 32.3509 18.298L26.7632 25.2825C26.593 25.4908 26.5 25.7521 26.5 26.0217C26.5 26.2913 26.593 26.5526 26.7632 26.7609L32.5476 33.7454C32.6636 33.8863 32.811 33.9976 32.9779 34.0705C33.1447 34.1433 33.3263 34.1755 33.5078 34.1645Z" fill="#3C4563"/>
</svg>
