<svg width="493" height="52" viewBox="0 0 493 52" fill="none" xmlns="http://www.w3.org/2000/svg">
<rect width="135" height="52" rx="26" fill="#D1FAE5"/>
<path d="M45 24.8319V33.5C44.9998 33.7719 44.9262 34.0386 44.7868 34.272C44.6475 34.5054 44.4476 34.6968 44.2084 34.8259C43.9916 34.9432 43.7485 35.0031 43.5021 34.9999H38.9967C38.7978 34.9999 38.607 34.9209 38.4664 34.7803C38.3257 34.6396 38.2467 34.4488 38.2467 34.2499V29.7493C38.2467 29.5504 38.1677 29.3596 38.0271 29.2189C37.8864 29.0783 37.6956 28.9993 37.4967 28.9993H34.4967C34.2978 28.9993 34.107 29.0783 33.9664 29.2189C33.8257 29.3596 33.7467 29.5504 33.7467 29.7493V34.2499C33.7467 34.4488 33.6677 34.6396 33.5271 34.7803C33.3864 34.9209 33.1956 34.9999 32.9967 34.9999H28.5002C28.2875 35.0005 28.0772 34.9556 27.8834 34.8682C27.6895 34.7808 27.5165 34.653 27.376 34.4934C27.1295 34.2082 26.9957 33.8427 27 33.4657V24.8318C27.0002 24.6228 27.0439 24.4162 27.1285 24.225C27.213 24.0339 27.3365 23.8625 27.491 23.7218L34.9903 16.9031C35.2658 16.6508 35.6258 16.5108 35.9994 16.5107C36.3729 16.5107 36.733 16.6506 37.0085 16.9029L44.5091 23.7219C44.6636 23.8626 44.787 24.034 44.8716 24.2252C44.9561 24.4163 44.9998 24.6229 45 24.8319Z" fill="#10B981"/>
<path d="M57.764 33V20.4H59.708V25.782H65.99V20.4H67.934V33H65.99V27.654H59.708V33H57.764ZM75.2374 33.18C74.3134 33.18 73.4854 32.97 72.7534 32.55C72.0334 32.118 71.4634 31.536 71.0434 30.804C70.6234 30.06 70.4134 29.214 70.4134 28.266C70.4134 27.318 70.6234 26.478 71.0434 25.746C71.4634 25.002 72.0334 24.42 72.7534 24C73.4854 23.568 74.3134 23.352 75.2374 23.352C76.1494 23.352 76.9654 23.568 77.6854 24C78.4174 24.42 78.9934 25.002 79.4134 25.746C79.8334 26.478 80.0434 27.318 80.0434 28.266C80.0434 29.214 79.8334 30.06 79.4134 30.804C78.9934 31.536 78.4174 32.118 77.6854 32.55C76.9654 32.97 76.1494 33.18 75.2374 33.18ZM75.2374 31.488C75.8014 31.488 76.3054 31.35 76.7494 31.074C77.1934 30.786 77.5414 30.402 77.7934 29.922C78.0454 29.43 78.1654 28.878 78.1534 28.266C78.1654 27.642 78.0454 27.09 77.7934 26.61C77.5414 26.118 77.1934 25.734 76.7494 25.458C76.3054 25.182 75.8014 25.044 75.2374 25.044C74.6734 25.044 74.1634 25.188 73.7074 25.476C73.2634 25.752 72.9154 26.136 72.6634 26.628C72.4114 27.108 72.2914 27.654 72.3034 28.266C72.2914 28.878 72.4114 29.43 72.6634 29.922C72.9154 30.402 73.2634 30.786 73.7074 31.074C74.1634 31.35 74.6734 31.488 75.2374 31.488ZM85.3756 33.18C84.3676 33.18 83.5636 32.838 82.9636 32.154C82.3636 31.47 82.0636 30.546 82.0636 29.382V23.55H83.9176V28.878C83.9176 29.706 84.1096 30.36 84.4936 30.84C84.8896 31.32 85.4356 31.56 86.1316 31.56C86.8156 31.56 87.3796 31.344 87.8236 30.912C88.2796 30.48 88.5076 29.922 88.5076 29.238V23.55H90.3616V33H88.5076V31.488C88.1956 31.992 87.7576 32.4 87.1936 32.712C86.6416 33.024 86.0356 33.18 85.3756 33.18ZM96.112 33.18C95.32 33.18 94.606 33.042 93.97 32.766C93.334 32.49 92.806 32.082 92.386 31.542L93.646 30.462C94.006 30.882 94.396 31.188 94.816 31.38C95.248 31.56 95.734 31.65 96.274 31.65C96.718 31.65 97.078 31.542 97.354 31.326C97.642 31.11 97.786 30.816 97.786 30.444C97.786 30.132 97.672 29.88 97.444 29.688C97.216 29.508 96.694 29.31 95.878 29.094C95.182 28.914 94.612 28.71 94.168 28.482C93.724 28.254 93.382 27.996 93.142 27.708C92.794 27.276 92.62 26.73 92.62 26.07C92.62 25.542 92.77 25.074 93.07 24.666C93.37 24.258 93.772 23.94 94.276 23.712C94.792 23.472 95.368 23.352 96.004 23.352C96.676 23.352 97.324 23.49 97.948 23.766C98.584 24.03 99.094 24.396 99.478 24.864L98.416 26.034C98.068 25.686 97.678 25.41 97.246 25.206C96.826 24.99 96.442 24.882 96.094 24.882C95.578 24.882 95.176 24.978 94.888 25.17C94.612 25.362 94.474 25.644 94.474 26.016C94.486 26.34 94.618 26.604 94.87 26.808C95.122 27.012 95.656 27.216 96.472 27.42C97.072 27.576 97.564 27.75 97.948 27.942C98.344 28.122 98.656 28.332 98.884 28.572C99.124 28.8 99.292 29.064 99.388 29.364C99.484 29.664 99.532 30 99.532 30.372C99.532 30.912 99.376 31.398 99.064 31.83C98.764 32.25 98.356 32.58 97.84 32.82C97.324 33.06 96.748 33.18 96.112 33.18ZM105.985 33.18C105.013 33.18 104.149 32.976 103.393 32.568C102.649 32.148 102.061 31.578 101.629 30.858C101.209 30.138 100.999 29.31 100.999 28.374C100.999 27.378 101.203 26.508 101.611 25.764C102.031 25.008 102.601 24.42 103.321 24C104.053 23.568 104.887 23.346 105.823 23.334C106.639 23.346 107.371 23.55 108.019 23.946C108.679 24.342 109.195 24.882 109.567 25.566C109.951 26.25 110.131 27.036 110.107 27.924L110.089 28.716H102.853C102.961 29.568 103.309 30.246 103.897 30.75C104.497 31.242 105.253 31.488 106.165 31.488C106.633 31.488 107.065 31.41 107.461 31.254C107.869 31.098 108.307 30.816 108.775 30.408L109.711 31.722C109.267 32.154 108.703 32.508 108.019 32.784C107.335 33.048 106.657 33.18 105.985 33.18ZM105.823 25.044C104.203 25.044 103.237 25.776 102.925 27.24H108.217V27.114C108.181 26.718 108.049 26.364 107.821 26.052C107.593 25.74 107.305 25.494 106.957 25.314C106.609 25.134 106.231 25.044 105.823 25.044Z" fill="#10B981"/>
<rect x="167.5" y="0.5" width="118" height="51" rx="25.5" stroke="#E0E3EB"/>
<path d="M198 34.9999H195C194.45 34.9999 194 34.5499 194 33.9999V22.6899C194 22.2699 194.25 21.8999 194.64 21.7499L205.64 17.5199C205.792 17.4613 205.956 17.4406 206.118 17.4599C206.28 17.4791 206.435 17.5376 206.569 17.6303C206.703 17.7229 206.812 17.847 206.887 17.9916C206.962 18.1362 207.001 18.297 207 18.4599V23.9999H199C198.45 23.9999 198 24.4499 198 24.9999V34.9999ZM208 25.9999H201C200.45 25.9999 200 26.4499 200 26.9999V33.9999C200 34.5499 200.45 34.9999 201 34.9999H205V30.9999C205 30.4499 205.45 29.9999 206 29.9999C206.55 29.9999 207 30.4499 207 30.9999V34.9999H211C211.55 34.9999 212 34.5499 212 33.9999V25.9999C212 24.8999 211.1 23.9999 210 23.9999C208.9 23.9999 208 24.8999 208 25.9999Z" fill="#888B97"/>
<path d="M228.472 33L223.432 20.4H225.646L228.652 28.05C228.856 28.578 229.03 29.034 229.174 29.418C229.318 29.802 229.438 30.15 229.534 30.462C229.642 30.138 229.762 29.784 229.894 29.4C230.026 29.004 230.188 28.554 230.38 28.05L233.17 20.4H235.438L230.362 33H228.472ZM238.405 21.462C238.009 21.462 237.703 21.36 237.487 21.156C237.271 20.952 237.163 20.664 237.163 20.292C237.163 19.944 237.271 19.662 237.487 19.446C237.715 19.23 238.021 19.122 238.405 19.122C238.801 19.122 239.107 19.224 239.323 19.428C239.539 19.632 239.647 19.92 239.647 20.292C239.647 20.64 239.533 20.922 239.305 21.138C239.089 21.354 238.789 21.462 238.405 21.462ZM237.505 33V23.55H239.359V33H237.505ZM242.209 33V19.68H244.063V33H242.209ZM246.727 33V19.68H248.581V33H246.727ZM254.668 33.18C253.888 33.18 253.174 32.964 252.526 32.532C251.89 32.1 251.38 31.512 250.996 30.768C250.612 30.024 250.42 29.184 250.42 28.248C250.42 27.3 250.612 26.46 250.996 25.728C251.392 24.984 251.92 24.402 252.58 23.982C253.252 23.562 254.002 23.352 254.83 23.352C255.538 23.352 256.162 23.508 256.702 23.82C257.254 24.12 257.674 24.51 257.962 24.99V23.55H259.834V33H257.962V31.542C257.638 31.998 257.176 32.388 256.576 32.712C255.988 33.024 255.352 33.18 254.668 33.18ZM255.154 31.47C255.718 31.47 256.216 31.332 256.648 31.056C257.08 30.78 257.416 30.402 257.656 29.922C257.908 29.43 258.034 28.872 258.034 28.248C258.034 27.636 257.908 27.09 257.656 26.61C257.416 26.13 257.08 25.752 256.648 25.476C256.216 25.2 255.718 25.062 255.154 25.062C254.602 25.062 254.11 25.2 253.678 25.476C253.258 25.752 252.922 26.13 252.67 26.61C252.43 27.09 252.31 27.636 252.31 28.248C252.31 28.872 252.43 29.43 252.67 29.922C252.922 30.402 253.258 30.78 253.678 31.056C254.11 31.332 254.602 31.47 255.154 31.47Z" fill="#888B97"/>
<rect x="318.5" y="0.5" width="174" height="51" rx="25.5" stroke="#E0E3EB"/>
<path d="M359 25V19C359 17.9 358.1 17 357 17H351C349.9 17 349 17.9 349 19V21H347C345.9 21 345 21.9 345 23V33C345 34.1 345.9 35 347 35H353V31H355V35H361C362.1 35 363 34.1 363 33V27C363 25.9 362.1 25 361 25H359ZM349 33H347V31H349V33ZM349 29H347V27H349V29ZM349 25H347V23H349V25ZM353 29H351V27H353V29ZM353 25H351V23H353V25ZM353 21H351V19H353V21ZM357 29H355V27H357V29ZM357 25H355V23H357V25ZM357 21H355V19H357V21ZM361 33H359V31H361V33ZM361 29H359V27H361V29Z" fill="#888B97"/>
<path d="M374.45 33L379.328 20.4H381.308L386.15 33H384.08L382.892 29.868H377.618L376.43 33H374.45ZM379.292 25.476L378.338 27.996H382.19L381.2 25.404C381.164 25.32 381.092 25.11 380.984 24.774C380.876 24.438 380.756 24.066 380.624 23.658C380.492 23.25 380.372 22.89 380.264 22.578C380.168 22.89 380.06 23.232 379.94 23.604C379.82 23.976 379.7 24.33 379.58 24.666C379.472 25.002 379.376 25.272 379.292 25.476ZM387.9 36.96V23.55H389.772V24.9C390.06 24.492 390.486 24.138 391.05 23.838C391.626 23.538 392.22 23.388 392.832 23.388C393.684 23.388 394.44 23.598 395.1 24.018C395.76 24.438 396.282 25.014 396.666 25.746C397.05 26.478 397.242 27.318 397.242 28.266C397.242 29.202 397.05 30.042 396.666 30.786C396.294 31.518 395.778 32.1 395.118 32.532C394.458 32.952 393.714 33.162 392.886 33.162C392.274 33.162 391.686 33.024 391.122 32.748C390.558 32.472 390.108 32.142 389.772 31.758V36.96H387.9ZM392.58 31.452C393.132 31.452 393.624 31.314 394.056 31.038C394.488 30.762 394.83 30.384 395.082 29.904C395.334 29.424 395.46 28.878 395.46 28.266C395.46 27.654 395.334 27.114 395.082 26.646C394.842 26.166 394.506 25.788 394.074 25.512C393.642 25.236 393.144 25.098 392.58 25.098C392.016 25.098 391.518 25.236 391.086 25.512C390.654 25.776 390.312 26.148 390.06 26.628C389.808 27.108 389.682 27.654 389.682 28.266C389.682 28.878 389.808 29.424 390.06 29.904C390.312 30.384 390.654 30.762 391.086 31.038C391.518 31.314 392.016 31.452 392.58 31.452ZM402.891 33.18C402.111 33.18 401.397 32.964 400.749 32.532C400.113 32.1 399.603 31.512 399.219 30.768C398.835 30.024 398.643 29.184 398.643 28.248C398.643 27.3 398.835 26.46 399.219 25.728C399.615 24.984 400.143 24.402 400.803 23.982C401.475 23.562 402.225 23.352 403.053 23.352C403.761 23.352 404.385 23.508 404.925 23.82C405.477 24.12 405.897 24.51 406.185 24.99V23.55H408.057V33H406.185V31.542C405.861 31.998 405.399 32.388 404.799 32.712C404.211 33.024 403.575 33.18 402.891 33.18ZM403.377 31.47C403.941 31.47 404.439 31.332 404.871 31.056C405.303 30.78 405.639 30.402 405.879 29.922C406.131 29.43 406.257 28.872 406.257 28.248C406.257 27.636 406.131 27.09 405.879 26.61C405.639 26.13 405.303 25.752 404.871 25.476C404.439 25.2 403.941 25.062 403.377 25.062C402.825 25.062 402.333 25.2 401.901 25.476C401.481 25.752 401.145 26.13 400.893 26.61C400.653 27.09 400.533 27.636 400.533 28.248C400.533 28.872 400.653 29.43 400.893 29.922C401.145 30.402 401.481 30.78 401.901 31.056C402.333 31.332 402.825 31.47 403.377 31.47ZM410.646 33V23.55H412.518V25.332C412.794 24.768 413.196 24.3 413.724 23.928C414.252 23.544 414.81 23.352 415.398 23.352C415.602 23.352 415.794 23.37 415.974 23.406C416.166 23.442 416.316 23.484 416.424 23.532L415.938 25.548C415.794 25.488 415.632 25.44 415.452 25.404C415.284 25.356 415.116 25.332 414.948 25.332C414.516 25.332 414.114 25.44 413.742 25.656C413.382 25.872 413.088 26.166 412.86 26.538C412.632 26.91 412.518 27.324 412.518 27.78V33H410.646ZM419.427 33V25.35H417.465V23.55H419.427V21.138H421.281V23.55H423.477V25.35H421.281V33H419.427ZM425.129 33V23.55H427.001V25.044C427.301 24.588 427.721 24.198 428.261 23.874C428.801 23.55 429.371 23.388 429.971 23.388C431.447 23.388 432.407 24.048 432.851 25.368C433.031 25.008 433.295 24.678 433.643 24.378C434.003 24.078 434.393 23.838 434.813 23.658C435.245 23.478 435.677 23.388 436.109 23.388C438.209 23.388 439.259 24.702 439.259 27.33V33H437.387V27.438C437.387 26.634 437.231 26.046 436.919 25.674C436.619 25.29 436.145 25.098 435.497 25.098C434.813 25.098 434.243 25.314 433.787 25.746C433.331 26.178 433.103 26.712 433.103 27.348V33H431.231V27.402C431.231 26.658 431.069 26.088 430.745 25.692C430.433 25.296 429.977 25.098 429.377 25.098C428.933 25.098 428.531 25.2 428.171 25.404C427.811 25.596 427.523 25.86 427.307 26.196C427.103 26.52 427.001 26.892 427.001 27.312V33H425.129ZM446.151 33.18C445.179 33.18 444.315 32.976 443.559 32.568C442.815 32.148 442.227 31.578 441.795 30.858C441.375 30.138 441.165 29.31 441.165 28.374C441.165 27.378 441.369 26.508 441.777 25.764C442.197 25.008 442.767 24.42 443.487 24C444.219 23.568 445.053 23.346 445.989 23.334C446.805 23.346 447.537 23.55 448.185 23.946C448.845 24.342 449.361 24.882 449.733 25.566C450.117 26.25 450.297 27.036 450.273 27.924L450.255 28.716H443.019C443.127 29.568 443.475 30.246 444.063 30.75C444.663 31.242 445.419 31.488 446.331 31.488C446.799 31.488 447.231 31.41 447.627 31.254C448.035 31.098 448.473 30.816 448.941 30.408L449.877 31.722C449.433 32.154 448.869 32.508 448.185 32.784C447.501 33.048 446.823 33.18 446.151 33.18ZM445.989 25.044C444.369 25.044 443.403 25.776 443.091 27.24H448.383V27.114C448.347 26.718 448.215 26.364 447.987 26.052C447.759 25.74 447.471 25.494 447.123 25.314C446.775 25.134 446.397 25.044 445.989 25.044ZM452.288 33V23.55H454.142V25.026C454.454 24.558 454.892 24.162 455.456 23.838C456.032 23.514 456.626 23.352 457.238 23.352C459.398 23.352 460.478 24.648 460.478 27.24V33H458.624V27.366C458.624 25.746 457.958 24.972 456.626 25.044C456.158 25.044 455.732 25.146 455.348 25.35C454.976 25.542 454.682 25.806 454.466 26.142C454.25 26.478 454.142 26.856 454.142 27.276V33H452.288ZM464.163 33V25.35H462.201V23.55H464.163V21.138H466.017V23.55H468.213V25.35H466.017V33H464.163Z" fill="#888B97"/>
</svg>
