<svg width="78" height="34" viewBox="0 0 78 34" fill="none" xmlns="http://www.w3.org/2000/svg">
<rect width="78" height="34" rx="17" fill="white" fill-opacity="0.1"/>
<rect x="0.5" y="0.5" width="77" height="33" rx="16.5" stroke="white" stroke-opacity="0.3"/>
<path d="M16.14 22L19.976 12.2H21.796L25.618 22H23.546L22.748 19.886H18.94L18.142 22H16.14ZM20.158 16.666L19.57 18.234H22.132L21.53 16.638C21.474 16.498 21.4087 16.316 21.334 16.092C21.2593 15.8587 21.1753 15.6113 21.082 15.35C20.998 15.0887 20.9233 14.8413 20.858 14.608C20.746 14.9533 20.6293 15.308 20.508 15.672C20.3867 16.036 20.27 16.3673 20.158 16.666ZM26.7557 22V14.608H28.6037L28.6317 15.826C28.8744 15.4247 29.1917 15.098 29.5837 14.846C29.9851 14.5847 30.4051 14.454 30.8437 14.454C31.0117 14.454 31.1657 14.468 31.3057 14.496C31.4551 14.5147 31.5811 14.5427 31.6837 14.58L31.1657 16.68C31.0631 16.624 30.9324 16.5773 30.7737 16.54C30.6151 16.5027 30.4564 16.484 30.2977 16.484C29.8404 16.484 29.4531 16.6427 29.1357 16.96C28.8277 17.268 28.6737 17.66 28.6737 18.136V22H26.7557ZM33.8278 22V16.33H32.4278V14.608H33.8278V12.718H35.7318V14.608H37.2858V16.33H35.7318V22H33.8278ZM39.7302 13.068C39.3569 13.068 39.0629 12.9747 38.8482 12.788C38.6429 12.6013 38.5402 12.3447 38.5402 12.018C38.5402 11.7007 38.6429 11.444 38.8482 11.248C39.0629 11.052 39.3569 10.954 39.7302 10.954C40.1036 10.954 40.3929 11.0473 40.5982 11.234C40.8036 11.4207 40.9062 11.682 40.9062 12.018C40.9062 12.326 40.7989 12.578 40.5842 12.774C40.3789 12.97 40.0942 13.068 39.7302 13.068ZM38.7782 22V14.608H40.6962V22H38.7782ZM46.0398 22.14C45.3398 22.14 44.7098 21.972 44.1498 21.636C43.5992 21.3 43.1605 20.8427 42.8338 20.264C42.5165 19.6853 42.3578 19.0273 42.3578 18.29C42.3578 17.562 42.5165 16.9087 42.8338 16.33C43.1605 15.7513 43.5992 15.294 44.1498 14.958C44.7098 14.622 45.3398 14.454 46.0398 14.454C46.7025 14.454 47.3045 14.5753 47.8458 14.818C48.3965 15.0607 48.8258 15.4013 49.1338 15.84L48.0838 17.1C47.8878 16.8293 47.6172 16.6007 47.2718 16.414C46.9265 16.218 46.5765 16.12 46.2218 16.12C45.8298 16.12 45.4798 16.218 45.1718 16.414C44.8732 16.6007 44.6352 16.8573 44.4578 17.184C44.2898 17.5107 44.2058 17.8793 44.2058 18.29C44.2058 18.7007 44.2945 19.0693 44.4718 19.396C44.6492 19.7227 44.8918 19.984 45.1998 20.18C45.5078 20.3667 45.8532 20.46 46.2358 20.46C46.5998 20.46 46.9358 20.3807 47.2438 20.222C47.5518 20.054 47.8318 19.8207 48.0838 19.522L49.1338 20.782C48.8165 21.1927 48.3778 21.524 47.8178 21.776C47.2578 22.0187 46.6652 22.14 46.0398 22.14ZM50.4361 22V11.64H52.3401V22H50.4361ZM57.7225 22.14C56.9292 22.14 56.2338 21.9767 55.6365 21.65C55.0392 21.3233 54.5725 20.8753 54.2365 20.306C53.9098 19.7367 53.7465 19.0833 53.7465 18.346C53.7465 17.5807 53.9052 16.9087 54.2225 16.33C54.5492 15.742 54.9925 15.28 55.5525 14.944C56.1218 14.608 56.7752 14.44 57.5125 14.44C58.1752 14.44 58.7678 14.6033 59.2905 14.93C59.8225 15.2473 60.2332 15.6813 60.5225 16.232C60.8212 16.7827 60.9612 17.4127 60.9425 18.122L60.9285 18.724H55.6085C55.7112 19.256 55.9632 19.676 56.3645 19.984C56.7752 20.292 57.2932 20.446 57.9185 20.446C58.2545 20.446 58.5578 20.3947 58.8285 20.292C59.1085 20.1893 59.4072 20.0073 59.7245 19.746L60.6485 21.034C60.2472 21.3887 59.7852 21.664 59.2625 21.86C58.7492 22.0467 58.2358 22.14 57.7225 22.14ZM57.5265 16.092C56.4718 16.092 55.8372 16.568 55.6225 17.52H59.1225V17.464C59.0945 17.0627 58.9265 16.736 58.6185 16.484C58.3198 16.2227 57.9558 16.092 57.5265 16.092Z" fill="#F0F3FD"/>
</svg>
