<svg width="96" height="34" viewBox="0 0 96 34" fill="none" xmlns="http://www.w3.org/2000/svg">
<rect width="96" height="34" rx="17" fill="white" fill-opacity="0.1"/>
<rect x="0.5" y="0.5" width="95" height="33" rx="16.5" stroke="white" stroke-opacity="0.3"/>
<path d="M16.14 22L19.976 12.2H21.796L25.618 22H23.546L22.748 19.886H18.94L18.142 22H16.14ZM20.158 16.666L19.57 18.234H22.132L21.53 16.638C21.474 16.498 21.4087 16.316 21.334 16.092C21.2593 15.8587 21.1753 15.6113 21.082 15.35C20.998 15.0887 20.9233 14.8413 20.858 14.608C20.746 14.9533 20.6293 15.308 20.508 15.672C20.3867 16.036 20.27 16.3673 20.158 16.666ZM30.9697 22.14C30.5031 22.14 30.0551 22.0467 29.6257 21.86C29.2057 21.664 28.8697 21.4213 28.6177 21.132L28.5757 21.972H26.7557V11.64H28.6737V15.476C28.9164 15.1867 29.2384 14.944 29.6397 14.748C30.0504 14.552 30.4797 14.454 30.9277 14.454C31.5717 14.454 32.1457 14.6173 32.6497 14.944C33.1631 15.2707 33.5644 15.7233 33.8537 16.302C34.1524 16.8807 34.3017 17.5433 34.3017 18.29C34.3017 19.0367 34.1571 19.6993 33.8677 20.278C33.5784 20.8567 33.1817 21.314 32.6777 21.65C32.1831 21.9767 31.6137 22.14 30.9697 22.14ZM30.5357 20.502C31.0957 20.502 31.5531 20.2967 31.9077 19.886C32.2624 19.4753 32.4397 18.9433 32.4397 18.29C32.4397 17.646 32.2624 17.1233 31.9077 16.722C31.5624 16.3113 31.1051 16.106 30.5357 16.106C29.9571 16.106 29.4904 16.3113 29.1357 16.722C28.7811 17.1233 28.6037 17.646 28.6037 18.29C28.6037 18.9433 28.7811 19.4753 29.1357 19.886C29.4904 20.2967 29.9571 20.502 30.5357 20.502ZM39.2365 22.14C38.4805 22.14 37.8085 21.9767 37.2205 21.65C36.6325 21.314 36.1705 20.8567 35.8345 20.278C35.4985 19.6993 35.3305 19.0367 35.3305 18.29C35.3305 17.5527 35.4985 16.8947 35.8345 16.316C36.1705 15.7373 36.6325 15.2847 37.2205 14.958C37.8085 14.622 38.4805 14.454 39.2365 14.454C39.9738 14.454 40.6365 14.622 41.2245 14.958C41.8125 15.2847 42.2745 15.7373 42.6105 16.316C42.9465 16.8947 43.1145 17.5527 43.1145 18.29C43.1145 19.0367 42.9465 19.6993 42.6105 20.278C42.2745 20.8567 41.8125 21.314 41.2245 21.65C40.6365 21.9767 39.9738 22.14 39.2365 22.14ZM39.2365 20.474C39.6098 20.474 39.9458 20.3807 40.2445 20.194C40.5432 19.998 40.7718 19.7367 40.9305 19.41C41.0985 19.0833 41.1825 18.71 41.1825 18.29C41.1825 17.87 41.0985 17.4967 40.9305 17.17C40.7718 16.8433 40.5432 16.5867 40.2445 16.4C39.9458 16.2133 39.6098 16.12 39.2365 16.12C38.8538 16.12 38.5132 16.2133 38.2145 16.4C37.9158 16.5867 37.6825 16.8433 37.5145 17.17C37.3465 17.4967 37.2625 17.87 37.2625 18.29C37.2625 18.71 37.3465 19.0833 37.5145 19.41C37.6825 19.7367 37.9158 19.998 38.2145 20.194C38.5132 20.3807 38.8538 20.474 39.2365 20.474ZM47.1869 22.14C46.3749 22.14 45.7355 21.8787 45.2689 21.356C44.8115 20.824 44.5829 20.096 44.5829 19.172V14.608H46.4869V18.822C46.4869 19.354 46.6129 19.774 46.8649 20.082C47.1262 20.3807 47.4809 20.53 47.9289 20.53C48.3769 20.53 48.7455 20.39 49.0349 20.11C49.3335 19.83 49.4829 19.4707 49.4829 19.032V14.608H51.3869V22H49.5669L49.5249 20.964C49.2729 21.3187 48.9369 21.6033 48.5169 21.818C48.1062 22.0327 47.6629 22.14 47.1869 22.14ZM54.1305 22V16.33H52.7305V14.608H54.1305V12.718H56.0345V14.608H57.5885V16.33H56.0345V22H54.1305ZM67.3932 22.084C66.6092 22.084 65.9092 21.9207 65.2932 21.594C64.6772 21.258 64.1919 20.8007 63.8372 20.222C63.4826 19.6433 63.3052 18.9807 63.3052 18.234V12.186H65.3352V18.108C65.3352 18.5187 65.4286 18.8873 65.6152 19.214C65.8019 19.5313 66.0492 19.7833 66.3572 19.97C66.6746 20.1567 67.0199 20.25 67.3932 20.25C67.7946 20.25 68.1539 20.1567 68.4712 19.97C68.7979 19.7833 69.0546 19.5313 69.2412 19.214C69.4372 18.8873 69.5352 18.5187 69.5352 18.108V12.186H71.4812V18.234C71.4812 18.9807 71.3039 19.6433 70.9492 20.222C70.6039 20.8007 70.1232 21.258 69.5072 21.594C68.8912 21.9207 68.1866 22.084 67.3932 22.084ZM76.1696 22.14C75.4883 22.14 74.8816 22.028 74.3496 21.804C73.8176 21.58 73.3883 21.2627 73.0616 20.852L74.2656 19.83C74.5456 20.138 74.8629 20.362 75.2176 20.502C75.5723 20.6327 75.9316 20.698 76.2956 20.698C76.5849 20.698 76.8183 20.6327 76.9956 20.502C77.1729 20.3713 77.2616 20.1893 77.2616 19.956C77.2616 19.7507 77.1776 19.5873 77.0096 19.466C76.8416 19.354 76.4403 19.214 75.8056 19.046C74.8629 18.8033 74.1956 18.472 73.8036 18.052C73.4583 17.6787 73.2856 17.2167 73.2856 16.666C73.2856 16.2273 73.4163 15.8447 73.6776 15.518C73.9389 15.182 74.2843 14.9207 74.7136 14.734C75.1429 14.5473 75.6096 14.454 76.1136 14.454C76.6923 14.454 77.2383 14.5567 77.7516 14.762C78.2649 14.9673 78.6943 15.2473 79.0396 15.602L78.0036 16.736C77.7423 16.4933 77.4389 16.2927 77.0936 16.134C76.7576 15.966 76.4449 15.882 76.1556 15.882C75.4836 15.882 75.1476 16.1153 75.1476 16.582C75.1569 16.806 75.2596 16.9833 75.4556 17.114C75.6423 17.2447 76.0669 17.3987 76.7296 17.576C77.6163 17.8093 78.2416 18.1173 78.6056 18.5C78.9229 18.8267 79.0816 19.2607 79.0816 19.802C79.0816 20.25 78.9509 20.6513 78.6896 21.006C78.4376 21.3607 78.0923 21.6407 77.6536 21.846C77.2149 22.042 76.7203 22.14 76.1696 22.14Z" fill="#F0F3FD"/>
</svg>
