<svg width="122" height="34" viewBox="0 0 122 34" fill="none" xmlns="http://www.w3.org/2000/svg">
<rect width="122" height="34" rx="17" fill="white" fill-opacity="0.1"/>
<rect x="0.5" y="0.5" width="121" height="33" rx="16.5" stroke="white" stroke-opacity="0.3"/>
<path d="M17.288 22V12.2H21.418C21.9967 12.2 22.5147 12.34 22.972 12.62C23.4387 12.8907 23.8073 13.264 24.078 13.74C24.358 14.2067 24.498 14.734 24.498 15.322C24.498 15.9287 24.358 16.4747 24.078 16.96C23.8073 17.436 23.4387 17.8187 22.972 18.108C22.5147 18.388 21.9967 18.528 21.418 18.528H19.304V22H17.288ZM19.29 16.694H21.208C21.5533 16.694 21.8427 16.568 22.076 16.316C22.3187 16.0547 22.44 15.7327 22.44 15.35C22.44 14.9673 22.3187 14.6547 22.076 14.412C21.8427 14.16 21.5533 14.034 21.208 14.034H19.29V16.694ZM26.0995 22V14.608H27.9475L27.9755 15.826C28.2181 15.4247 28.5355 15.098 28.9275 14.846C29.3288 14.5847 29.7488 14.454 30.1875 14.454C30.3555 14.454 30.5095 14.468 30.6495 14.496C30.7988 14.5147 30.9248 14.5427 31.0275 14.58L30.5095 16.68C30.4068 16.624 30.2761 16.5773 30.1175 16.54C29.9588 16.5027 29.8001 16.484 29.6415 16.484C29.1841 16.484 28.7968 16.6427 28.4795 16.96C28.1715 17.268 28.0175 17.66 28.0175 18.136V22H26.0995ZM35.2717 22.14C34.5157 22.14 33.8437 21.9767 33.2557 21.65C32.6677 21.314 32.2057 20.8567 31.8697 20.278C31.5337 19.6993 31.3657 19.0367 31.3657 18.29C31.3657 17.5527 31.5337 16.8947 31.8697 16.316C32.2057 15.7373 32.6677 15.2847 33.2557 14.958C33.8437 14.622 34.5157 14.454 35.2717 14.454C36.009 14.454 36.6717 14.622 37.2597 14.958C37.8477 15.2847 38.3097 15.7373 38.6457 16.316C38.9817 16.8947 39.1497 17.5527 39.1497 18.29C39.1497 19.0367 38.9817 19.6993 38.6457 20.278C38.3097 20.8567 37.8477 21.314 37.2597 21.65C36.6717 21.9767 36.009 22.14 35.2717 22.14ZM35.2717 20.474C35.645 20.474 35.981 20.3807 36.2797 20.194C36.5783 19.998 36.807 19.7367 36.9657 19.41C37.1337 19.0833 37.2177 18.71 37.2177 18.29C37.2177 17.87 37.1337 17.4967 36.9657 17.17C36.807 16.8433 36.5783 16.5867 36.2797 16.4C35.981 16.2133 35.645 16.12 35.2717 16.12C34.889 16.12 34.5483 16.2133 34.2497 16.4C33.951 16.5867 33.7177 16.8433 33.5497 17.17C33.3817 17.4967 33.2977 17.87 33.2977 18.29C33.2977 18.71 33.3817 19.0833 33.5497 19.41C33.7177 19.7367 33.951 19.998 34.2497 20.194C34.5483 20.3807 34.889 20.474 35.2717 20.474ZM40.66 25.08V14.608H42.508L42.536 15.504C42.7787 15.2053 43.11 14.958 43.53 14.762C43.95 14.566 44.3933 14.468 44.86 14.468C45.504 14.468 46.078 14.6313 46.582 14.958C47.086 15.2847 47.4827 15.7373 47.772 16.316C48.0613 16.8947 48.206 17.5527 48.206 18.29C48.206 19.0273 48.0613 19.6853 47.772 20.264C47.4827 20.8427 47.086 21.3 46.582 21.636C46.078 21.9627 45.504 22.126 44.86 22.126C44.4213 22.126 43.9967 22.0373 43.586 21.86C43.1753 21.6733 42.844 21.44 42.592 21.16V25.08H40.66ZM44.44 20.474C45.0093 20.474 45.4713 20.2733 45.826 19.872C46.1807 19.4613 46.358 18.934 46.358 18.29C46.358 17.6553 46.1807 17.1373 45.826 16.736C45.4713 16.3253 45.0093 16.12 44.44 16.12C43.8707 16.12 43.4087 16.3207 43.054 16.722C42.6993 17.1233 42.522 17.646 42.522 18.29C42.522 18.934 42.6993 19.4613 43.054 19.872C43.4087 20.2733 43.8707 20.474 44.44 20.474ZM53.2245 22.14C52.4311 22.14 51.7358 21.9767 51.1385 21.65C50.5411 21.3233 50.0745 20.8753 49.7385 20.306C49.4118 19.7367 49.2485 19.0833 49.2485 18.346C49.2485 17.5807 49.4071 16.9087 49.7245 16.33C50.0511 15.742 50.4945 15.28 51.0545 14.944C51.6238 14.608 52.2771 14.44 53.0145 14.44C53.6771 14.44 54.2698 14.6033 54.7925 14.93C55.3245 15.2473 55.7351 15.6813 56.0245 16.232C56.3231 16.7827 56.4631 17.4127 56.4445 18.122L56.4305 18.724H51.1105C51.2131 19.256 51.4651 19.676 51.8665 19.984C52.2771 20.292 52.7951 20.446 53.4205 20.446C53.7565 20.446 54.0598 20.3947 54.3305 20.292C54.6105 20.1893 54.9091 20.0073 55.2265 19.746L56.1505 21.034C55.7491 21.3887 55.2871 21.664 54.7645 21.86C54.2511 22.0467 53.7378 22.14 53.2245 22.14ZM53.0285 16.092C51.9738 16.092 51.3391 16.568 51.1245 17.52H54.6245V17.464C54.5965 17.0627 54.4285 16.736 54.1205 16.484C53.8218 16.2227 53.4578 16.092 53.0285 16.092ZM57.9276 22V14.608H59.7756L59.8036 15.826C60.0463 15.4247 60.3636 15.098 60.7556 14.846C61.1569 14.5847 61.5769 14.454 62.0156 14.454C62.1836 14.454 62.3376 14.468 62.4776 14.496C62.6269 14.5147 62.7529 14.5427 62.8556 14.58L62.3376 16.68C62.2349 16.624 62.1043 16.5773 61.9456 16.54C61.7869 16.5027 61.6283 16.484 61.4696 16.484C61.0123 16.484 60.6249 16.6427 60.3076 16.96C59.9996 17.268 59.8456 17.66 59.8456 18.136V22H57.9276ZM64.9997 22V16.33H63.5997V14.608H64.9997V12.718H66.9037V14.608H68.4577V16.33H66.9037V22H64.9997ZM70.8041 25.22L72.1761 22.042L68.8161 14.608H70.9861L72.8621 19.032C72.9461 19.228 73.0301 19.4567 73.1141 19.718C73.1514 19.6153 73.1841 19.5173 73.2121 19.424C73.2494 19.3213 73.2868 19.214 73.3241 19.102L74.9341 14.608H77.1321L74.0241 22L72.7501 25.22H70.8041Z" fill="#F0F3FD"/>
<path d="M102.624 15.12C102.624 14.9462 102.563 14.7778 102.452 14.644C102.389 14.5687 102.312 14.5065 102.224 14.4609C102.137 14.4152 102.042 14.3871 101.944 14.3781C101.846 14.3692 101.747 14.3795 101.653 14.4085C101.559 14.4376 101.472 14.4847 101.396 14.5474L97.3853 17.8792L93.3667 14.6664C93.2901 14.6046 93.2021 14.5584 93.1075 14.5306C93.013 14.5028 92.9138 14.4938 92.8158 14.5041C92.7177 14.5145 92.6227 14.544 92.5361 14.591C92.4496 14.638 92.3733 14.7015 92.3115 14.7779C92.2434 14.8549 92.192 14.945 92.1606 15.0426C92.1292 15.1402 92.1184 15.2432 92.1289 15.3452C92.1395 15.4471 92.1711 15.5458 92.2218 15.6351C92.2726 15.7243 92.3413 15.8021 92.4238 15.8637L96.9138 19.4558C97.0477 19.5652 97.2157 19.625 97.389 19.625C97.5623 19.625 97.7303 19.5652 97.8642 19.4558L102.354 15.7373C102.445 15.6627 102.516 15.5679 102.563 15.4607C102.61 15.3534 102.631 15.2367 102.624 15.12Z" fill="white"/>
</svg>
