<svg width="135" height="52" viewBox="0 0 135 52" fill="none" xmlns="http://www.w3.org/2000/svg">
<rect width="135" height="52" rx="26" fill="#D1FAE5"/>
<path d="M45 24.8319V33.5C44.9998 33.7719 44.9262 34.0386 44.7868 34.272C44.6475 34.5054 44.4476 34.6968 44.2084 34.8259C43.9916 34.9432 43.7485 35.0031 43.5021 34.9999H38.9967C38.7978 34.9999 38.607 34.9209 38.4664 34.7803C38.3257 34.6396 38.2467 34.4488 38.2467 34.2499V29.7493C38.2467 29.5504 38.1677 29.3596 38.0271 29.2189C37.8864 29.0783 37.6956 28.9993 37.4967 28.9993H34.4967C34.2978 28.9993 34.107 29.0783 33.9664 29.2189C33.8257 29.3596 33.7467 29.5504 33.7467 29.7493V34.2499C33.7467 34.4488 33.6677 34.6396 33.5271 34.7803C33.3864 34.9209 33.1956 34.9999 32.9967 34.9999H28.5002C28.2875 35.0005 28.0772 34.9556 27.8834 34.8682C27.6895 34.7808 27.5165 34.653 27.376 34.4934C27.1295 34.2082 26.9957 33.8427 27 33.4657V24.8318C27.0002 24.6228 27.0439 24.4162 27.1285 24.225C27.213 24.0339 27.3365 23.8625 27.491 23.7218L34.9903 16.9031C35.2658 16.6508 35.6258 16.5108 35.9994 16.5107C36.3729 16.5107 36.733 16.6506 37.0085 16.9029L44.5091 23.7219C44.6636 23.8626 44.787 24.034 44.8716 24.2252C44.9561 24.4163 44.9998 24.6229 45 24.8319Z" fill="#10B981"/>
<path d="M57.764 33V20.4H59.708V25.782H65.99V20.4H67.934V33H65.99V27.654H59.708V33H57.764ZM75.2374 33.18C74.3134 33.18 73.4854 32.97 72.7534 32.55C72.0334 32.118 71.4634 31.536 71.0434 30.804C70.6234 30.06 70.4134 29.214 70.4134 28.266C70.4134 27.318 70.6234 26.478 71.0434 25.746C71.4634 25.002 72.0334 24.42 72.7534 24C73.4854 23.568 74.3134 23.352 75.2374 23.352C76.1494 23.352 76.9654 23.568 77.6854 24C78.4174 24.42 78.9934 25.002 79.4134 25.746C79.8334 26.478 80.0434 27.318 80.0434 28.266C80.0434 29.214 79.8334 30.06 79.4134 30.804C78.9934 31.536 78.4174 32.118 77.6854 32.55C76.9654 32.97 76.1494 33.18 75.2374 33.18ZM75.2374 31.488C75.8014 31.488 76.3054 31.35 76.7494 31.074C77.1934 30.786 77.5414 30.402 77.7934 29.922C78.0454 29.43 78.1654 28.878 78.1534 28.266C78.1654 27.642 78.0454 27.09 77.7934 26.61C77.5414 26.118 77.1934 25.734 76.7494 25.458C76.3054 25.182 75.8014 25.044 75.2374 25.044C74.6734 25.044 74.1634 25.188 73.7074 25.476C73.2634 25.752 72.9154 26.136 72.6634 26.628C72.4114 27.108 72.2914 27.654 72.3034 28.266C72.2914 28.878 72.4114 29.43 72.6634 29.922C72.9154 30.402 73.2634 30.786 73.7074 31.074C74.1634 31.35 74.6734 31.488 75.2374 31.488ZM85.3756 33.18C84.3676 33.18 83.5636 32.838 82.9636 32.154C82.3636 31.47 82.0636 30.546 82.0636 29.382V23.55H83.9176V28.878C83.9176 29.706 84.1096 30.36 84.4936 30.84C84.8896 31.32 85.4356 31.56 86.1316 31.56C86.8156 31.56 87.3796 31.344 87.8236 30.912C88.2796 30.48 88.5076 29.922 88.5076 29.238V23.55H90.3616V33H88.5076V31.488C88.1956 31.992 87.7576 32.4 87.1936 32.712C86.6416 33.024 86.0356 33.18 85.3756 33.18ZM96.112 33.18C95.32 33.18 94.606 33.042 93.97 32.766C93.334 32.49 92.806 32.082 92.386 31.542L93.646 30.462C94.006 30.882 94.396 31.188 94.816 31.38C95.248 31.56 95.734 31.65 96.274 31.65C96.718 31.65 97.078 31.542 97.354 31.326C97.642 31.11 97.786 30.816 97.786 30.444C97.786 30.132 97.672 29.88 97.444 29.688C97.216 29.508 96.694 29.31 95.878 29.094C95.182 28.914 94.612 28.71 94.168 28.482C93.724 28.254 93.382 27.996 93.142 27.708C92.794 27.276 92.62 26.73 92.62 26.07C92.62 25.542 92.77 25.074 93.07 24.666C93.37 24.258 93.772 23.94 94.276 23.712C94.792 23.472 95.368 23.352 96.004 23.352C96.676 23.352 97.324 23.49 97.948 23.766C98.584 24.03 99.094 24.396 99.478 24.864L98.416 26.034C98.068 25.686 97.678 25.41 97.246 25.206C96.826 24.99 96.442 24.882 96.094 24.882C95.578 24.882 95.176 24.978 94.888 25.17C94.612 25.362 94.474 25.644 94.474 26.016C94.486 26.34 94.618 26.604 94.87 26.808C95.122 27.012 95.656 27.216 96.472 27.42C97.072 27.576 97.564 27.75 97.948 27.942C98.344 28.122 98.656 28.332 98.884 28.572C99.124 28.8 99.292 29.064 99.388 29.364C99.484 29.664 99.532 30 99.532 30.372C99.532 30.912 99.376 31.398 99.064 31.83C98.764 32.25 98.356 32.58 97.84 32.82C97.324 33.06 96.748 33.18 96.112 33.18ZM105.985 33.18C105.013 33.18 104.149 32.976 103.393 32.568C102.649 32.148 102.061 31.578 101.629 30.858C101.209 30.138 100.999 29.31 100.999 28.374C100.999 27.378 101.203 26.508 101.611 25.764C102.031 25.008 102.601 24.42 103.321 24C104.053 23.568 104.887 23.346 105.823 23.334C106.639 23.346 107.371 23.55 108.019 23.946C108.679 24.342 109.195 24.882 109.567 25.566C109.951 26.25 110.131 27.036 110.107 27.924L110.089 28.716H102.853C102.961 29.568 103.309 30.246 103.897 30.75C104.497 31.242 105.253 31.488 106.165 31.488C106.633 31.488 107.065 31.41 107.461 31.254C107.869 31.098 108.307 30.816 108.775 30.408L109.711 31.722C109.267 32.154 108.703 32.508 108.019 32.784C107.335 33.048 106.657 33.18 105.985 33.18ZM105.823 25.044C104.203 25.044 103.237 25.776 102.925 27.24H108.217V27.114C108.181 26.718 108.049 26.364 107.821 26.052C107.593 25.74 107.305 25.494 106.957 25.314C106.609 25.134 106.231 25.044 105.823 25.044Z" fill="#10B981"/>
</svg>
