<svg width="107" height="46" viewBox="0 0 107 46" fill="none" xmlns="http://www.w3.org/2000/svg">
<rect width="107" height="46" rx="23" fill="#D1FAE5"/>
<path d="M28.452 28.14C27.5467 28.14 26.7673 27.9767 26.114 27.65C25.47 27.314 24.9193 26.8333 24.462 26.208L25.736 24.766C26.1933 25.4007 26.646 25.8347 27.094 26.068C27.542 26.292 28.0367 26.404 28.578 26.404C29.0167 26.404 29.3853 26.3107 29.684 26.124C29.992 25.9373 30.146 25.6853 30.146 25.368C30.146 24.9853 29.95 24.6867 29.558 24.472C29.1753 24.248 28.6807 24.0753 28.074 23.954C27.0193 23.73 26.2353 23.3707 25.722 22.876C25.2087 22.3813 24.952 21.7233 24.952 20.902C24.952 20.3327 25.1153 19.8333 25.442 19.404C25.7687 18.9653 26.198 18.6247 26.73 18.382C27.2713 18.1393 27.8687 18.018 28.522 18.018C29.39 18.018 30.1087 18.1673 30.678 18.466C31.2567 18.7553 31.714 19.1707 32.05 19.712L30.748 20.986C30.1693 20.1647 29.432 19.754 28.536 19.754C28.0693 19.754 27.6913 19.852 27.402 20.048C27.122 20.2347 26.982 20.4913 26.982 20.818C26.982 21.1633 27.1453 21.434 27.472 21.63C27.808 21.826 28.256 21.98 28.816 22.092C29.8427 22.3067 30.6547 22.652 31.252 23.128C31.8587 23.5947 32.162 24.2247 32.162 25.018C32.162 25.6713 32.0033 26.2313 31.686 26.698C31.378 27.1647 30.944 27.524 30.384 27.776C29.8333 28.0187 29.1893 28.14 28.452 28.14ZM34.9744 19.068C34.601 19.068 34.307 18.9747 34.0924 18.788C33.887 18.6013 33.7844 18.3447 33.7844 18.018C33.7844 17.7007 33.887 17.444 34.0924 17.248C34.307 17.052 34.601 16.954 34.9744 16.954C35.3477 16.954 35.637 17.0473 35.8424 17.234C36.0477 17.4207 36.1504 17.682 36.1504 18.018C36.1504 18.326 36.043 18.578 35.8284 18.774C35.623 18.97 35.3384 19.068 34.9744 19.068ZM34.0224 28V20.608H35.9404V28H34.0224ZM41.438 31.22C40.8687 31.22 40.2993 31.1313 39.73 30.954C39.17 30.786 38.7127 30.5667 38.358 30.296L39.03 28.91C39.3193 29.1247 39.66 29.2927 40.052 29.414C40.4533 29.5353 40.8593 29.596 41.27 29.596C42.7167 29.596 43.44 28.9147 43.44 27.552V26.978C43.2067 27.2767 42.88 27.5287 42.46 27.734C42.0493 27.93 41.6153 28.028 41.158 28.028C40.4767 28.028 39.8653 27.8693 39.324 27.552C38.792 27.2253 38.372 26.782 38.064 26.222C37.756 25.6527 37.602 25.004 37.602 24.276C37.602 23.5387 37.7513 22.8807 38.05 22.302C38.358 21.7233 38.778 21.2707 39.31 20.944C39.842 20.6173 40.4393 20.454 41.102 20.454C41.5967 20.454 42.054 20.5567 42.474 20.762C42.9033 20.958 43.244 21.196 43.496 21.476L43.524 20.608H45.358V27.454C45.358 28.658 45.008 29.5867 44.308 30.24C43.6173 30.8933 42.6607 31.22 41.438 31.22ZM41.494 26.46C42.1007 26.46 42.586 26.2593 42.95 25.858C43.3233 25.4567 43.51 24.934 43.51 24.29C43.51 23.6367 43.3233 23.1093 42.95 22.708C42.5767 22.2973 42.0913 22.092 41.494 22.092C40.906 22.092 40.4253 22.2973 40.052 22.708C39.688 23.1187 39.506 23.646 39.506 24.29C39.506 24.934 39.688 25.4567 40.052 25.858C40.4253 26.2593 40.906 26.46 41.494 26.46ZM47.3338 28V20.608H49.1818L49.2098 21.602C49.4618 21.266 49.7978 20.9907 50.2178 20.776C50.6378 20.5613 51.0765 20.454 51.5338 20.454C53.2325 20.454 54.0818 21.462 54.0818 23.478V28H52.1778V23.618C52.1778 22.5633 51.7345 22.0547 50.8478 22.092C50.3905 22.092 50.0078 22.232 49.6998 22.512C49.4012 22.792 49.2518 23.1373 49.2518 23.548V28H47.3338ZM64.5104 28.084C63.7264 28.084 63.0264 27.9207 62.4104 27.594C61.7944 27.258 61.3091 26.8007 60.9544 26.222C60.5998 25.6433 60.4224 24.9807 60.4224 24.234V18.186H62.4524V24.108C62.4524 24.5187 62.5458 24.8873 62.7324 25.214C62.9191 25.5313 63.1664 25.7833 63.4744 25.97C63.7918 26.1567 64.1371 26.25 64.5104 26.25C64.9118 26.25 65.2711 26.1567 65.5884 25.97C65.9151 25.7833 66.1718 25.5313 66.3584 25.214C66.5544 24.8873 66.6524 24.5187 66.6524 24.108V18.186H68.5984V24.234C68.5984 24.9807 68.4211 25.6433 68.0664 26.222C67.7211 26.8007 67.2404 27.258 66.6244 27.594C66.0084 27.9207 65.3038 28.084 64.5104 28.084ZM70.7948 31.08V20.608H72.6428L72.6708 21.504C72.9134 21.2053 73.2448 20.958 73.6648 20.762C74.0848 20.566 74.5281 20.468 74.9948 20.468C75.6388 20.468 76.2128 20.6313 76.7168 20.958C77.2208 21.2847 77.6174 21.7373 77.9068 22.316C78.1961 22.8947 78.3408 23.5527 78.3408 24.29C78.3408 25.0273 78.1961 25.6853 77.9068 26.264C77.6174 26.8427 77.2208 27.3 76.7168 27.636C76.2128 27.9627 75.6388 28.126 74.9948 28.126C74.5561 28.126 74.1314 28.0373 73.7208 27.86C73.3101 27.6733 72.9788 27.44 72.7268 27.16V31.08H70.7948ZM74.5748 26.474C75.1441 26.474 75.6061 26.2733 75.9608 25.872C76.3154 25.4613 76.4928 24.934 76.4928 24.29C76.4928 23.6553 76.3154 23.1373 75.9608 22.736C75.6061 22.3253 75.1441 22.12 74.5748 22.12C74.0054 22.12 73.5434 22.3207 73.1888 22.722C72.8341 23.1233 72.6568 23.646 72.6568 24.29C72.6568 24.934 72.8341 25.4613 73.1888 25.872C73.5434 26.2733 74.0054 26.474 74.5748 26.474ZM80.2232 24.514C80.1112 23.646 80.0132 22.7453 79.9292 21.812C79.8452 20.8693 79.8032 19.9827 79.8032 19.152V18.102H81.8052V19.152C81.8052 20.0107 81.7632 20.916 81.6792 21.868C81.5952 22.8107 81.4972 23.6927 81.3852 24.514H80.2232ZM80.7832 28.154C80.4286 28.154 80.1532 28.056 79.9572 27.86C79.7706 27.6547 79.6772 27.3653 79.6772 26.992C79.6772 26.6467 79.7799 26.3667 79.9852 26.152C80.1906 25.928 80.4566 25.816 80.7832 25.816C81.1379 25.816 81.4086 25.9187 81.5952 26.124C81.7912 26.3293 81.8892 26.6187 81.8892 26.992C81.8892 27.328 81.7866 27.608 81.5812 27.832C81.3759 28.0467 81.1099 28.154 80.7832 28.154Z" fill="#047857"/>
</svg>
