<svg width="144" height="32" viewBox="0 0 144 32" fill="none" xmlns="http://www.w3.org/2000/svg">
<path d="M12.3186 26V16.6154H9V13.2365H12.3186V10.3505C12.3186 8.08264 14.2789 6 18.7959 6C20.6247 6 21.9771 6.1311 21.9771 6.1311L21.8705 9.28642C21.8705 9.28642 20.4913 9.27638 18.9863 9.27638C17.3574 9.27638 17.0965 9.83768 17.0965 10.7693V13.2365H22L21.7866 16.6154H17.0965V26H12.3186Z" fill="#3C4563"/>
<path d="M84 8.37575C83.1174 8.76628 82.157 9.04735 81.1676 9.15682C82.1948 8.53089 82.9639 7.54202 83.3308 6.37575C82.367 6.96388 81.3111 7.37629 80.2101 7.59469C79.7499 7.09003 79.1933 6.688 78.575 6.41364C77.9567 6.13929 77.2899 5.99849 76.6163 6.00001C73.8906 6.00001 71.6986 8.26628 71.6986 11.0473C71.6986 11.4379 71.7447 11.8284 71.8197 12.2042C67.7385 11.9852 64.0985 9.98522 61.6786 6.92309C61.2377 7.69562 61.0066 8.57524 61.0095 9.47042C61.0095 11.2219 61.8777 12.7663 63.2015 13.6746C62.4214 13.643 61.6594 13.4231 60.9778 13.0326V13.0947C60.9778 15.5473 62.6679 17.5799 64.9206 18.0473C64.4976 18.16 64.0625 18.2177 63.6255 18.2189C63.3054 18.2189 63.0025 18.1864 62.6968 18.142C63.3198 20.142 65.134 21.5947 67.2943 21.642C65.6041 23 63.4871 23.7988 61.1883 23.7988C60.7759 23.7988 60.3951 23.784 60 23.7367C62.1805 25.1716 64.7677 26 67.5539 26C76.599 26 81.5484 18.3136 81.5484 11.642C81.5484 11.4231 81.5484 11.2042 81.534 10.9852C82.4915 10.2663 83.3308 9.37575 84 8.37575Z" fill="#3C4563"/>
<path d="M127.997 12.6652C126.161 12.6652 124.663 14.1638 124.663 16C124.663 17.8362 126.161 19.3348 127.997 19.3348C129.834 19.3348 131.332 17.8362 131.332 16C131.332 14.1638 129.834 12.6652 127.997 12.6652ZM137.999 16C137.999 14.6191 138.011 13.2506 137.934 11.8722C137.856 10.2711 137.491 8.85017 136.32 7.67938C135.147 6.50609 133.729 6.14334 132.128 6.06579C130.747 5.98824 129.378 6.00074 128 6.00074C126.619 6.00074 125.251 5.98824 123.872 6.06579C122.271 6.14334 120.85 6.50859 119.679 7.67938C118.506 8.85267 118.143 10.2711 118.066 11.8722C117.988 13.2531 118.001 14.6216 118.001 16C118.001 17.3784 117.988 18.7494 118.066 20.1278C118.143 21.7289 118.509 23.1498 119.679 24.3206C120.853 25.4939 122.271 25.8567 123.872 25.9342C125.253 26.0118 126.621 25.9993 128 25.9993C129.381 25.9993 130.749 26.0118 132.128 25.9342C133.729 25.8567 135.15 25.4914 136.32 24.3206C137.494 23.1473 137.856 21.7289 137.934 20.1278C138.014 18.7494 137.999 17.3809 137.999 16ZM127.997 21.131C125.158 21.131 122.866 18.8394 122.866 16C122.866 13.1606 125.158 10.869 127.997 10.869C130.837 10.869 133.128 13.1606 133.128 16C133.128 18.8394 130.837 21.131 127.997 21.131ZM133.338 11.8572C132.675 11.8572 132.14 11.3218 132.14 10.6589C132.14 9.99594 132.675 9.46058 133.338 9.46058C134.001 9.46058 134.537 9.99594 134.537 10.6589C134.537 10.8163 134.506 10.9722 134.446 11.1177C134.386 11.2632 134.297 11.3954 134.186 11.5067C134.075 11.618 133.943 11.7062 133.797 11.7664C133.652 11.8265 133.496 11.8574 133.338 11.8572Z" fill="#3C4563"/>
</svg>
