<svg width="60" height="52" viewBox="0 0 60 52" fill="none" xmlns="http://www.w3.org/2000/svg">
<rect width="60" height="52" rx="26" fill="#10B981"/>
<path d="M27.6589 17.8355C27.3886 17.835 27.1266 17.9297 26.9185 18.1033C26.8014 18.201 26.7045 18.321 26.6336 18.4564C26.5626 18.5919 26.5189 18.7401 26.5049 18.8925C26.4909 19.045 26.507 19.1988 26.5521 19.345C26.5973 19.4912 26.6707 19.627 26.7681 19.7446L31.9509 25.9841L26.9532 32.2353C26.8571 32.3543 26.7854 32.4913 26.7421 32.6384C26.6988 32.7855 26.6848 32.9397 26.7009 33.0922C26.717 33.2448 26.7629 33.3926 26.836 33.5272C26.9091 33.6618 27.0079 33.7806 27.1267 33.8766C27.2464 33.9826 27.3866 34.0625 27.5385 34.1114C27.6903 34.1603 27.8506 34.177 28.0092 34.1607C28.1678 34.1443 28.3213 34.0951 28.4601 34.0161C28.5989 33.9372 28.72 33.8303 28.8158 33.702L34.4035 26.7175C34.5736 26.5092 34.6667 26.2479 34.6667 25.9783C34.6667 25.7087 34.5736 25.4474 34.4035 25.2391L28.6191 18.2546C28.5031 18.1137 28.3556 18.0024 28.1888 17.9295C28.022 17.8567 27.8404 17.8245 27.6589 17.8355Z" fill="white"/>
</svg>
