<svg width="119" height="52" viewBox="0 0 119 52" fill="none" xmlns="http://www.w3.org/2000/svg">
<rect x="0.5" y="0.5" width="118" height="51" rx="25.5" stroke="#E0E3EB"/>
<path d="M31 34.9999H28C27.45 34.9999 27 34.5499 27 33.9999V22.6899C27 22.2699 27.25 21.8999 27.64 21.7499L38.64 17.5199C38.7921 17.4613 38.9561 17.4406 39.118 17.4599C39.2798 17.4791 39.4345 17.5376 39.5686 17.6303C39.7027 17.7229 39.8121 17.847 39.8873 17.9916C39.9624 18.1362 40.0012 18.297 40 18.4599V23.9999H32C31.45 23.9999 31 24.4499 31 24.9999V34.9999ZM41 25.9999H34C33.45 25.9999 33 26.4499 33 26.9999V33.9999C33 34.5499 33.45 34.9999 34 34.9999H38V30.9999C38 30.4499 38.45 29.9999 39 29.9999C39.55 29.9999 40 30.4499 40 30.9999V34.9999H44C44.55 34.9999 45 34.5499 45 33.9999V25.9999C45 24.8999 44.1 23.9999 43 23.9999C41.9 23.9999 41 24.8999 41 25.9999Z" fill="#888B97"/>
<path d="M61.472 33L56.432 20.4H58.646L61.652 28.05C61.856 28.578 62.03 29.034 62.174 29.418C62.318 29.802 62.438 30.15 62.534 30.462C62.642 30.138 62.762 29.784 62.894 29.4C63.026 29.004 63.188 28.554 63.38 28.05L66.17 20.4H68.438L63.362 33H61.472ZM71.4052 21.462C71.0092 21.462 70.7032 21.36 70.4872 21.156C70.2712 20.952 70.1632 20.664 70.1632 20.292C70.1632 19.944 70.2712 19.662 70.4872 19.446C70.7152 19.23 71.0212 19.122 71.4052 19.122C71.8012 19.122 72.1072 19.224 72.3232 19.428C72.5392 19.632 72.6472 19.92 72.6472 20.292C72.6472 20.64 72.5332 20.922 72.3052 21.138C72.0892 21.354 71.7892 21.462 71.4052 21.462ZM70.5052 33V23.55H72.3592V33H70.5052ZM75.209 33V19.68H77.063V33H75.209ZM79.7265 33V19.68H81.5805V33H79.7265ZM87.6683 33.18C86.8883 33.18 86.1743 32.964 85.5263 32.532C84.8903 32.1 84.3803 31.512 83.9963 30.768C83.6123 30.024 83.4203 29.184 83.4203 28.248C83.4203 27.3 83.6123 26.46 83.9963 25.728C84.3923 24.984 84.9203 24.402 85.5803 23.982C86.2523 23.562 87.0023 23.352 87.8303 23.352C88.5383 23.352 89.1623 23.508 89.7023 23.82C90.2543 24.12 90.6743 24.51 90.9623 24.99V23.55H92.8343V33H90.9623V31.542C90.6383 31.998 90.1763 32.388 89.5763 32.712C88.9883 33.024 88.3523 33.18 87.6683 33.18ZM88.1543 31.47C88.7183 31.47 89.2163 31.332 89.6483 31.056C90.0803 30.78 90.4163 30.402 90.6563 29.922C90.9083 29.43 91.0343 28.872 91.0343 28.248C91.0343 27.636 90.9083 27.09 90.6563 26.61C90.4163 26.13 90.0803 25.752 89.6483 25.476C89.2163 25.2 88.7183 25.062 88.1543 25.062C87.6023 25.062 87.1103 25.2 86.6783 25.476C86.2583 25.752 85.9223 26.13 85.6703 26.61C85.4303 27.09 85.3103 27.636 85.3103 28.248C85.3103 28.872 85.4303 29.43 85.6703 29.922C85.9223 30.402 86.2583 30.78 86.6783 31.056C87.1103 31.332 87.6023 31.47 88.1543 31.47Z" fill="#888B97"/>
</svg>
